<svg width="150" height="150" fill="none" xmlns="http://www.w3.org/2000/svg"><path fill-rule="evenodd" clip-rule="evenodd" d="M73.124.034c-.032.032-1.152.117-2.49.188-1.338.07-2.84.177-3.337.236a105.01 105.01 0 00-7.581 1.183c-1.204.237-4.882 1.165-5.6 1.414-.156.054-.843.263-1.528.464-2.124.626-5.693 1.973-8.203 3.097-15.68 7.02-28.602 19.375-36.35 34.75-1.411 2.801-2.266 4.787-3.41 7.923-1.286 3.523-2.392 7.402-3 10.525-.562 2.889-.672 3.524-.906 5.262-.38 2.809-.46 3.61-.595 5.886-.286 4.832-.082 9.371.654 14.542.391 2.752 1.314 7.388 1.735 8.715.059.186.295 1.001.524 1.81.724 2.557 1.891 5.886 2.856 8.149 4.594 10.772 11.676 20.444 20.39 27.848 1.995 1.695 2.373 1.999 4.05 3.255 5.442 4.076 11.879 7.611 18.069 9.921l1.81.676c.75.28 2.02.676 4.017 1.251 4.51 1.299 9.47 2.204 14.652 2.672 2.916.264 9.474.265 12.276.003 7.744-.726 14.165-2.184 20.747-4.709 17.244-6.616 31.76-19.795 40.109-36.415.884-1.76 2.016-4.246 2.488-5.464 1.378-3.555 1.712-4.53 2.498-7.289 1.313-4.612 1.977-7.996 2.611-13.309.171-1.427.387-5.612.39-7.526.003-1.969-.231-6.54-.399-7.809-.058-.435-.184-1.403-.279-2.15-.675-5.263-2.017-10.741-3.891-15.884-6.858-18.822-21.422-34.427-39.835-42.683-1.983-.889-5.476-2.253-6.959-2.717-5.853-1.833-9.92-2.701-15.896-3.393-2.034-.236-9.482-.563-9.617-.422zm5.698.97c10.099.587 19.337 2.949 28.414 7.265 4.768 2.268 10.42 5.887 14.652 9.383 13.985 11.552 23.088 27.093 26.122 44.595.786 4.537 1.066 7.877 1.068 12.732.001 5.722-.435 9.931-1.619 15.618-2.098 10.079-6.709 20.27-12.951 28.623-5.076 6.795-11.527 12.939-18.447 17.57-10.989 7.356-23.619 11.538-37.11 12.289-3.162.176-5.18.175-8.09-.003-10.543-.646-20.119-3.209-29.305-7.841-14.83-7.479-27.228-20.425-34.042-35.549C3.64 97.092 1.589 88.64.995 78.843c-.2-3.298-.21-4.396-.059-6.563l.232-3.356c.125-1.832.149-2.023.623-5.149 1.365-9.003 4.38-17.633 8.943-25.597a74.243 74.243 0 0123.185-24.786c2.12-1.411 4.917-3.075 6.618-3.938a76.128 76.128 0 001.64-.85c.188-.105 1.309-.625 2.491-1.157 4.073-1.83 7.831-3.129 12.672-4.378 3.924-1.012 9.396-1.813 14.024-2.052C72.605.953 73.648.873 73.682.84c.073-.073 2.205-.005 5.14.166zm-16.56 10.39c-.405.091-1.754.415-2.998.72-10.653 2.608-21.21 8.425-28.94 15.945-.795.774-1.432 1.446-1.414 1.494.08.223 2.669 2.881 3.99 4.096a57.057 57.057 0 007.412 5.793c1.577 1.038 3.946 2.434 4.13 2.434.066 0 .131-.136.145-.302.053-.64.138-.376.138.428 0 .688.09 1.123.495 2.367.766 2.358 1.224 3.456 3.438 8.258a73.719 73.719 0 011.716 4.075c.198.529.438 1.131.533 1.339.095.207.146.404.112.437-.033.034-.094-.072-.135-.234-.082-.329-.276-.294-.276.049 0 .264.113.269-1.444-.053l-1.273-.263.029 6.625.03 6.626 1.187.251c1.745.37 3.353.787 5.22 1.355.912.277 1.718.504 1.793.504.092 0 .116-.136.074-.424-.13-.895-.293-1.594-.476-2.052-.104-.262-.165-.5-.135-.53.085-.085.529 1.211.663 1.936.066.36.086.95.044 1.312-.081.7-.693 2.122-1.101 2.56-.49.524-.842.343-3.296-1.701a93.914 93.914 0 00-3.182-2.496c-2.85-2.132-3.356-2.59-5.582-5.056-2.84-3.145-4.418-4.536-5.789-5.1-.648-.266-1.807-.189-2.538.169-.99.484-1.874 1.7-1.874 2.575 0 .113-.051.206-.114.206-.349 0 .28-1.421.936-2.115.676-.715 1.27-1.02 2.176-1.12.553-.061.752-.144 1.075-.444.72-.67 1.568-.922 2.457-.73.926.199.9.133.671 1.705l-.202 1.383.344.343c.189.19.376.311.416.271.04-.04.124-.52.186-1.07.063-.547.156-1.072.206-1.166.177-.326.36.473.433 1.892l.071 1.383.574.598c.315.329.989 1.069 1.497 1.644l.924 1.047.287-.567c.514-1.015.668-1.836.666-3.563-.002-1.777-.158-2.558-.76-3.792-.457-.935-1.61-2.123-2.425-2.499-.58-.266-.594-.283-.533-.67.087-.545.826-3.847 1.072-4.785.231-.88.212-.921-.578-1.269-2.637-1.16-8.061-4.53-11.138-6.921-2.68-2.083-5.838-4.894-7.465-6.647-.513-.553-.984-.973-1.047-.934-.063.039-.723.975-1.468 2.08-4.915 7.292-8.117 14.937-9.873 23.57-.547 2.685-.9 5.354-.938 7.073l-.022 1.018 3.394.004c3.922.004 4.278.017 4.194.153-.034.056-.14.467-.233.914-.094.448-.296 1.027-.45 1.289-.486.83-.658 1.864-.587 3.525.035.81.16 1.892.277 2.405l.213.934h-6.898l.077 1.16c.171 2.595.61 5.484 1.258 8.29.711 3.075.96 3.992 1.656 6.111a64.232 64.232 0 007.482 15.448c1.317 1.984 3.477 4.867 3.648 4.867.073 0 .348-.256.612-.569 2.377-2.82 6.605-6.75 10.078-9.367 2.268-1.709 5.965-4.128 7.524-4.923 1.066-.543 1.024-.415.622-1.894-.194-.714-.555-2.164-.802-3.222a109.787 109.787 0 00-.505-2.106c-.04-.133.148-.281.708-.557 1.018-.5 2.211-1.699 2.783-2.792 1.198-2.295 1.303-5.854.238-8.078-.48-1.003-1.603-2.155-2.619-2.689-1.496-.786-4.593-1.279-6.525-1.038-1.266.157-2.241.467-3.008.956-.61.39-.644.397-1.836.4l-1.215.003-.3-.594c-.73-1.442-1.968-2.914-3.319-3.945l-.77-.587.642-.534c.901-.75 1.806-1.778 2.3-2.614.232-.391.437-.758.456-.816.02-.058 1.114-.101 2.535-.098 1.933.004 2.637.045 3.1.182.718.214.754.217.58.043-.075-.075-.136-.182-.136-.237 0-.055.195.146.434.447.925 1.166 3.591 3.866 6.75 6.835.56.526 1.77 1.675 2.688 2.553l1.669 1.595v5.174c0 3.43.04 5.248.12 5.397.227.425.555.44 2.155.102.833-.177 1.527-.309 1.543-.294.015.015.153.584.306 1.263.41 1.817.673 2.708.799 2.706.325-.006 4.128-1.347 4.126-1.455-.002-.07-.096-.248-.208-.395l-.206-.267-1.569.521c-.862.287-1.602.484-1.642.437-.063-.07-.48-1.674-.716-2.752-.063-.286-.038-.298 1.3-.665.771-.21 1.405-.33 1.46-.274.136.14 1.501 2.9 1.868 3.776.682 1.632 1.682 3.44 2.943 5.32.73 1.089 1.472 2.164 1.649 2.388.318.405.318.408.057.358-.145-.028-.666.06-1.157.196-1.463.404-4.622 1.459-4.834 1.614-.184.135-.17.211.212 1.161 2.831 7.026 7.253 15.064 11.933 21.691 2.58 3.654 2.88 4.054 3.035 4.054.128 0 .144-1.306.098-8.007-.047-6.842-.082-8.131-.24-8.856-.102-.467-.23-1.485-.286-2.264-.106-1.476-.184-1.851-.515-2.492-.11-.212-1.417-1.63-2.906-3.15-3.11-3.179-4.093-4.317-5.63-6.524-1.9-2.728-2.825-4.33-3.758-6.507a45.946 45.946 0 00-.956-2.063c-.273-.544-.496-1.03-.496-1.081 0-.052.37-.212.82-.357a40.982 40.982 0 001.696-.598c.808-.308.885-.365 1-.749.073-.247.108-1.083.086-2.072-.033-1.44-.066-1.69-.253-1.896-.119-.13-.297-.24-.396-.241-.1-.002-1.358.388-2.797.866-1.438.479-2.698.838-2.8.8-.166-.064-.184-.509-.184-4.481 0-2.613-.046-4.53-.111-4.703-.145-.38-.556-.535-1.041-.394-.207.06-1.216.288-2.243.508-2.268.484-2.262.48-2.262 1.787v.919l-.99-.967a178.619 178.619 0 00-2.631-2.487c-2.59-2.401-4.342-4.135-5.573-5.511-2.8-3.134-4.208-5.527-3.945-6.7.26-1.16 1.187-2.042 2.142-2.042 1.29 0 3.14 1.393 5.712 4.3 2.393 2.704 3.297 3.552 5.794 5.434a127.45 127.45 0 014.011 3.155c1.693 1.413 2.23 1.71 3.091 1.71.936 0 1.606-.636 2.12-2.01.782-2.09.539-3.644-1.15-7.372a60.296 60.296 0 01-1.51-3.746c-2.157-6.022-3.58-9.667-5.033-12.902-2.979-6.625-3.394-7.77-3.392-9.336.001-1.09.213-1.63.868-2.222.822-.741 1.713-.836 2.402-.257.53.447 1.261 1.723 2.375 4.148.564 1.23 1.026 2.258 1.026 2.285 0 .089 1.65 3.814 2.253 5.091a40.57 40.57 0 002.635 4.705c.888 1.363 1.972 3.45 3.145 6.055 1.214 2.694 1.89 4.051 2.164 4.346.206.221.325.254.748.206.673-.075 1.223-.605 1.454-1.4.153-.525.152-.73-.012-1.98a37.26 37.26 0 00-.336-2.133c-.322-1.547-.637-3.99-.794-6.169-.158-2.178-.677-5.691-1.538-10.407-.426-2.33-1.085-4.967-1.634-6.536-.792-2.268-1.605-5.303-1.712-6.395-.092-.942.108-1.606.681-2.256.588-.669 1.18-.94 2.057-.943.757-.002.967.102 1.694.846.817.835 1.394 2.318 1.981 5.088.198.93.476 2.101.62 2.603.142.5.371 1.444.509 2.096.137.652.428 1.67.645 2.263.218.593.494 1.377.613 1.742.312.957 1.412 5.816 1.617 7.146l.469 3.055c.505 3.3 1.052 5.699 1.771 7.774.408 1.175.49 1.224 2.084 1.224 1.017 0 1.069-.013 1.453-.35.232-.205.443-.523.505-.764.06-.228.163-1.972.231-3.876.069-1.904.2-4.119.293-4.923.122-1.058.199-3.816.28-10.006.06-4.7.156-9.288.21-10.198.114-1.868.225-2.208.972-2.976.368-.38.585-.505.974-.563 1.463-.22 3.144.683 3.83 2.056.401.801.68 2.421.801 4.664.5 9.216.59 11.58.68 18.052.053 3.921.134 7.8.178 8.618l.08 1.49-.579.293c-.318.161-.63.392-.695.512-.07.13-.117 1.107-.117 2.383v2.163l-1.427.673c-.784.37-1.446.674-1.47.674-.025 0-.046-.777-.047-1.726-.002-1.896-.08-2.207-.6-2.38-.28-.093-.596.03-2.584 1.008-1.246.612-2.312 1.2-2.368 1.306-.059.11-.103 3.17-.103 7.103 0 6.76.005 6.916.226 7.138.124.124.349.226.499.226.15 0 1.274-.492 2.498-1.093 1.71-.84 2.251-1.157 2.33-1.366.057-.15.104-1.381.104-2.737v-2.464l1.442-.689 1.443-.688.057 2.227c.03 1.225.1 2.293.152 2.375.053.082.224.197.381.257.236.09.513.007 1.601-.476.724-.321 1.724-.758 2.221-.972 1.026-.439 1.302-.647 1.302-.978 0-.18.03-.201.136-.096.231.232.705.153 1.936-.324l1.188-.46.435.218c1.255.63 3.31.991 5.164.908 1.808-.08 2.565-.656 3.584-2.725l.625-1.267 1.172-.195c.686-.113 1.257-.27 1.377-.379.162-.147.253-.159.442-.057.361.193 4.518-.078 4.787-.312.178-.155.198-.434.198-2.701 0-1.391.039-2.529.085-2.529.047 0 .319.37.605.82.287.452.784 1.232 1.106 1.734l.585.914-.522 1.18c-.288.65-1.003 1.915-1.59 2.813-1.482 2.266-2.273 3.937-3.433 7.251a70.172 70.172 0 01-1.224 3.226c-1.715 4.088-5.378 11.731-6.266 13.078-1.341 2.032-2.904 3.584-5.07 5.036-1.323.887-1.5 1.046-1.752 1.565-.542 1.123-1.789 7.371-2.046 10.255-.094 1.057-.279 1.502-1.619 3.904-1.779 3.189-3.936 6.585-7.008 11.035-.452.654-1.494 2.832-1.494 3.122 0 .229.35-.121 1-1 4.117-5.565 7.879-11.646 10.554-17.061 1.821-3.687 3.833-8.23 3.833-8.655 0-.208-.17-.294-1.357-.686-.53-.175-.983-.335-1.01-.355-.113-.09.562-.66 1.276-1.078 1.687-.987 3.505-2.655 4.87-4.466.744-.987 2.274-3.835 3.547-6.602.33-.716.7-1.493.823-1.726.579-1.097.694-1.346 1.111-2.405.246-.623.856-2.082 1.357-3.243.5-1.161 1.046-2.562 1.213-3.112.771-2.548 2.168-5.477 3.491-7.32.78-1.087 1.218-1.864 1.636-2.905l.32-.796.414.624c.228.344.439.625.469.625.202 0 3.046.599 3.497.736 1.215.37 1.46.195 1.538-1.095l.056-.943h1.132l.056 1.37c.035.849.11 1.434.198 1.539.078.093.485.313.905.488 1.045.437 3.165 1.496 3.242 1.62.057.093-1.91 1.085-3.072 1.55l-.481.192v2.465h-2.828v-.743c0-.656-.024-.737-.198-.682-.445.137-2.611.62-3.112.693-.497.073-.537.102-.537.402v.324l-1.895.031-1.895.031-.057.68-.057.678-.565-.823c-.553-.805-.576-.823-1.007-.792-.49.035-.51.071-1.098 2.012a27.829 27.829 0 01-.691 1.92c-.239.59-.539 1.532-.667 2.094-.133.581-.376 1.257-.563 1.567l-.33.545v4.835l.594.062c.326.034 1.09.093 1.696.132 1.056.067 1.101.08 1.048.314-.031.134-.16.728-.288 1.32a136.99 136.99 0 01-.793 3.317c-.308 1.234-.56 2.304-.56 2.379 0 .075.318.309.707.521 2.276 1.241 5.566 3.375 7.835 5.082 3.065 2.307 7.406 6.297 9.591 8.817.499.575.969 1.046 1.044 1.046.345 0 3.906-5.12 5.627-8.091 2.942-5.078 5.681-11.945 6.814-17.09.491-2.226.759-3.55.962-4.753.255-1.509.69-5.61.609-5.743-.028-.047-1.783-.085-3.899-.085-3.613 0-3.845-.012-3.787-.198.033-.11.131-.504.217-.877.087-.374.284-.866.439-1.094.43-.633.601-1.634.586-3.433-.009-1.125-.078-1.872-.236-2.575-.123-.544-.198-1.015-.166-1.046.031-.032 1.573-.057 3.426-.057 1.853 0 3.395-.044 3.428-.097.085-.138-.349-4.239-.619-5.845-.203-1.204-.474-2.548-.96-4.753-.477-2.167-1.687-5.995-2.717-8.602-1.822-4.607-4.399-9.328-7.374-13.507-1.584-2.225-3.893-5.053-4.126-5.053-.096 0-.394.28-.663.623-1.814 2.315-6.058 6.698-8.535 8.817-2.217 1.896-6.481 5.002-8.497 6.189-.202.119-.203.154-.024.849 1.133 4.401 1.789 7.117 1.789 7.414 0 .083-.499.154-1.443.206-1.669.09-2.242.213-2.402.514-.071.133-.115 1.61-.115 3.876v3.66l-.507.788c-.279.434-.565.929-.636 1.1-.071.172-.162.312-.203.312-.04 0-.822-1.846-1.736-4.102-1.464-3.61-1.706-4.3-2.014-5.744-.411-1.924-1.007-4.2-1.139-4.346-.053-.06-.58.092-1.256.362-3.45 1.38-8.998 3.08-10.99 3.368-.588.085-.676.185-.62.703l.036.334 1.406-.323c3.091-.709 6.126-1.63 9.336-2.833.806-.301 1.5-.51 1.541-.463.091.102.872 3.334.921 3.811.03.293-.01.341-.362.43-1.051.268-3.939 1.154-4.211 1.293-.281.143-.45.587-1.967 5.191l-1.659 5.035H88.285v-3.717c0-3.581-.009-3.724-.228-3.923-.343-.31-.738-.254-1.955.28-.61.267-1.136.457-1.17.423-.19-.19-.292-3.04-.378-10.604-.053-4.638-.15-8.865-.216-9.394-.066-.529-.173-2.49-.238-4.357-.226-6.492-.71-8.948-1.997-10.148-.324-.302-1.479-.885-1.76-.888-.115-.001-.117-.022-.008-.09.105-.067.147-.991.17-3.736l.03-3.647 1.033 1.446c.968 1.354 3.052 4.476 4.046 6.061 1.703 2.717 5.152 9.153 6.229 11.625l.52 1.188c1.034 2.336 1.367 3.135 1.323 3.18-.018.017-.464.217-.992.443-1.682.72-4.874 1.795-6.768 2.278l-1.262.321v.861l.424-.077c2.102-.383 9.454-2.992 9.615-3.412.126-.326-1.99-5.118-3.983-9.026-2.039-3.996-4.052-7.451-6.395-10.978-1.944-2.925-4.482-6.322-4.648-6.219-.06.037-.104 2.07-.104 4.855v4.79l-.764.045c-1.354.08-2.212.727-2.972 2.24l-.253.504-.093 10.077c-.05 5.543-.12 10.255-.152 10.473-.125.82-.415 5.125-.5 7.413-.099 2.64-.132 2.759-.852 3.13-.511.265-.825.216-1.232-.19-.47-.47-.703-1.112-1.256-3.45-.62-2.622-.902-4.287-1.142-6.733a74.541 74.541 0 00-.216-2.037c-.022-.125-.018-.163.009-.085.026.078.096.141.153.141.14 0 .142-31.312.002-31.399-.236-.146-4.708 6.058-6.626 9.192-.421.688-.428.715-.219.883.147.117.089.107-.18-.032-.31-.16-.665-.203-1.64-.203-1.136 0-1.302.028-1.893.318-1.206.593-2.124 1.992-2.124 3.238 0 .302.133 1 .295 1.552.163.552.408 1.45.545 1.997l.249.993-.782 1.61c-1.764 3.631-3.917 8.877-3.753 9.144.158.255 4.877 1.472 7.32 1.888.3.05.309.038.24-.328-.04-.21-.042-.352-.003-.316.066.059.251 1.195.682 4.18.246 1.701.51 3.971.597 5.117l.074.987-.328-.104c-.636-.2-3.268-.542-3.337-.434-.038.06-.133-.05-.213-.241-.079-.192-.627-1.023-1.217-1.847a21.004 21.004 0 01-1.895-3.198c-1.08-2.235-1.171-2.44-1.927-4.298-1.141-2.807-3.15-7.006-3.952-8.26-.534-.835-1.29-1.303-2.106-1.303H47.8l.203-.425c.112-.233.418-.933.68-1.556.618-1.465 3.141-6.568 4.254-8.6 2.618-4.785 7.05-11.602 9.801-15.079.307-.388.526-.757.487-.82-.084-.136-.033-.14-.963.071zm24.552.028c0 .057.219.375.487.707 1.652 2.052 5.34 7.498 7.346 10.847 2.843 4.746 5.208 9.371 7.279 14.236.569 1.336.934 2.058 1.03 2.037.256-.056 2.748-1.836 4.167-2.976 3.44-2.763 6.361-5.699 9.261-9.31.414-.515.752-1.01.752-1.097 0-.27-2.971-2.634-5.487-4.365-6.858-4.719-14.246-7.926-22.555-9.792-1.793-.402-2.28-.464-2.28-.287zM61.17 12.82c-.21.237-1.085 1.447-2.516 3.48-3.896 5.538-8.195 13.277-11.149 20.069-.347.798-.63 1.524-.63 1.612 0 .089-.053.161-.116.161-.189 0-1.139.927-1.441 1.406a5.602 5.602 0 00-.465.986l-.185.543-1.414-.821c-4.227-2.454-8.122-5.494-11.763-9.183l-1.523-1.542.58-.533 1.636-1.503c7.644-7.02 18.066-12.479 28.268-14.806.466-.107.87-.178.896-.158.026.02-.054.15-.178.29zm29.887.245c7.864 1.94 15.824 5.8 22.572 10.948 2.306 1.76 2.419 1.858 2.346 2.037-.102.247-2.043 2.543-3.287 3.887-2.327 2.514-5.56 5.377-8.237 7.293-.629.45-1.184.776-1.234.724-.049-.052-.227-.426-.395-.83-.167-.405-.395-.94-.506-1.189-.111-.248-.366-.831-.568-1.295-.496-1.14-2.301-4.821-3.25-6.627-2.34-4.454-5.205-9.058-8.533-13.713-.675-.945-1.228-1.742-1.228-1.772 0-.03.166-.01.368.046.202.055 1.08.276 1.952.491zM69.494 32.568c-.005 7.142-.027 12.935-.048 12.873-.022-.062-.43-1.336-.907-2.83a159.968 159.968 0 00-1.032-3.154c-.258-.692-1.012-3.802-1.403-5.786-.537-2.721-1.044-4.154-1.926-5.44l-.316-.462.464-.727c1.498-2.35 5.019-7.461 5.139-7.461.02 0 .034 5.844.029 12.987zm55.223 2.09c2.155 2.686 3.838 5.092 5.487 7.84.822 1.372 2.974 5.502 3.332 6.395.087.218.308.727.491 1.132.641 1.42 1.947 5.09 2.557 7.186 1.011 3.47 1.937 8.444 2.197 11.8l.046.596-3.156-.03-3.156-.03-.365-.906c-1.48-3.666-3.929-6.06-8.648-8.46-2.912-1.48-3.529-1.64-3.87-1.002-.079.148-.12 1.946-.12 5.324v5.1h-1.244v-5.658c0-5.393-.01-5.669-.214-5.872-.366-.367-4.223-1.216-4.7-1.035a.836.836 0 00-.517.788c0 .212-.068.234-.711.234-.391 0-.979.07-1.306.154l-.596.155-.666-.937c-.622-.876-.685-1.025-.963-2.277a78.029 78.029 0 00-.402-1.735c-.058-.218-.261-1.033-.452-1.811a51.976 51.976 0 00-.569-2.14c-.122-.398-.208-.733-.192-.744 5.108-3.423 6.989-4.866 10.213-7.835 2.11-1.944 5.355-5.396 6.395-6.802.146-.198.295-.358.33-.354.035.004.394.42.799.923zm-65.772 1.468c-.036.09-.063.063-.069-.069-.005-.12.022-.186.06-.149.037.038.041.136.009.218zm.907 2.525c.474 1.28.85 2.833 1.22 5.036.089.529.235 1.318.325 1.754.09.436.195.977.234 1.203l.07.412-1.219-.273c-1.696-.379-4.055-.95-4.708-1.14-.514-.15-.543-.18-.473-.464.209-.837 2.08-5.26 3.215-7.598.256-.525.469-1.035.474-1.131.004-.097.087.053.183.333s.401 1.12.678 1.868zm-12.216-.78c-.038.037-.136.04-.217.008-.09-.036-.064-.063.068-.068.12-.005.186.022.149.06zm-23.121 1.727c3.944 3.874 7.937 6.961 12.69 9.81 1.569.939 4.521 2.54 4.685 2.54.209 0 .219.199.047.914-.097.4-.364 1.56-.594 2.578l-.418 1.85-1.636.022c-1.492.02-1.71.05-2.485.344-1.87.708-3.091 1.824-3.962 3.623-.328.679-.622 1.49-.727 2.01-.2.989-.231 2.934-.063 3.822.137.72.626 1.843.918 2.108.118.106.214.236.214.289 0 .052-.734.095-1.63.095h-1.63l.209-.69.209-.692-.644.072c-.354.04-1.16.154-1.791.254l-1.148.18-.07.438-.07.438h-2.544c-1.4 0-2.544-.038-2.543-.084 0-.047.078-.411.172-.81.374-1.588 1.53-3.164 2.775-3.785.866-.431 1.29-.401 1.79.125l.403.425 1.569-1.047a79.542 79.542 0 011.756-1.153c.17-.095.165-.147-.054-.597-1.084-2.231-3.175-2.309-6.3-.233-1.027.682-2.671 2.328-3.44 3.445-.62.9-1.44 2.414-1.753 3.233l-.183.481H11.234l.004-.537c.004-.58.07-1.12.444-3.65 1.178-7.95 4.11-16.105 8.324-23.147 1.213-2.027 2.7-4.24 2.85-4.24.033 0 .78.705 1.659 1.569zm45.396 7.337c.085.361.15.758.144.883-.005.124-.072-.054-.147-.396a41.9 41.9 0 00-.224-.962c-.048-.187-.05-.304-.007-.26.044.044.149.374.234.735zm40.517 13.19a287.53 287.53 0 012.473 3.82l.671 1.075.03-3.65c.017-2.007.045-3.65.064-3.65.16 0 1.605.293 2.593.526l1.217.286v13.361l-.255-.069c-.14-.038-.865-.202-1.612-.365a184.51 184.51 0 01-1.692-.374c-.281-.066-.507-.353-1.398-1.77-.586-.93-1.682-2.632-2.438-3.781l-1.374-2.09-.03 3.593c-.023 2.733-.063 3.603-.17 3.636-.076.024-.967.073-1.979.11l-1.839.066.029-6.65.029-6.648.622-.067a28.634 28.634 0 011.939-.085l1.317-.018 1.803 2.744zm-46.977.368c.1.622.285 1.514.41 1.98.405 1.498.226 2.595-.44 2.695-.283.042-.67-.349-.813-.821-.173-.573-1.523-3.764-2.192-5.184-.504-1.067-.59-1.329-.438-1.326.105.002.725.077 1.379.166 1.68.23 1.694.229 1.712-.141.008-.172.057.096.108.594.05.498.174 1.414.274 2.037zm35.218-1.217c.404.944 3.421 8.398 4.096 10.119l.652 1.658-.523.076c-.288.042-1.258.223-2.157.404-.9.18-1.645.316-1.658.302-.013-.013-.159-.47-.324-1.015-.166-.545-.32-.99-.344-.99-.125 0-3.592 1.03-4.072 1.21l-.565.21-.324 1.195-.324 1.195-2.037.76c-1.12.42-2.06.74-2.086.713-.026-.026 1.063-3.429 2.42-7.56l2.468-7.513.62-.203c1.237-.407 3.565-1.085 3.745-1.092.115-.004.27.196.413.531zm14.168 1.407V62.4l-.92-1.407c-.505-.773-.942-1.464-.969-1.536-.066-.173.805-.473 1.408-.484l.481-.009v1.718zm-60.773.602c1.276 3.597 2.848 7.629 3.247 8.326.069.12-1.366-.117-2.327-.385l-.962-.268-.057-3.893-.058-3.893-.31-.84c-.17-.462-.307-.895-.302-.962.01-.179.145.155.77 1.915zm70.899-.518c3.604 1.819 5.732 3.486 7.093 5.554 1.552 2.36 2.294 4.607 2.429 7.357.152 3.098-.453 4.26-2.168 4.16-.874-.05-1.847-.498-4.07-1.873-1.602-.99-4.397-2.469-5.462-2.888l-.481-.19V59.543l.368.127c.202.07 1.233.563 2.291 1.097zm-60.658 2.421c.213.467.42 1 .46 1.187.091.41.425.735.702.682.303-.058.488-.525.49-1.233l.002-.63-.926-.389-1.02-.426c-.052-.021.08.343.292.81zm25.188 5.969v6.684l-.56.232c-.306.128-1.21.523-2.007.88l-1.45.646-.03-2.64c-.017-1.452-.076-2.64-.131-2.64-.056 0-1.06.459-2.233 1.019l-2.132 1.018-.056 2.714-.057 2.714-1.96.964c-1.08.53-1.983.965-2.01.965-.025 0-.046-2.995-.046-6.656v-6.656l2.008-.985 2.008-.985.03 2.333c.024 1.793.064 2.32.17 2.275.304-.128 4.109-1.958 4.241-2.04.106-.066.142-.674.142-2.408v-2.32l.65-.292c.801-.361 3.356-1.489 3.394-1.498.016-.004.029 3 .029 6.676zM96 63.266c-.207.649-1.267 4.512-1.267 4.62 0 .07 2.558-.584 2.798-.716.015-.008-.295-.98-.688-2.158-.703-2.103-.718-2.135-.843-1.746zm28.377 4.951v3.593l.933.533c1.523.87 1.971 1.038 2.349.881.512-.212.677-.794.677-2.384 0-.826-.069-1.667-.176-2.137-.188-.83-.743-1.861-1.33-2.476-.396-.415-2.12-1.603-2.325-1.603-.093 0-.128.981-.128 3.593zm-91.421-2.58c.15.895.633 1.966 1.403 3.118.291.435.386.63.211.43-.842-.956-1.787-3.007-1.828-3.967-.026-.61.073-.416.214.419zm63.363.18c.274.722.263.808-.123.943-.201.07-.378.127-.393.127-.014 0 .05-.305.144-.679.095-.373.192-.679.217-.679.025 0 .095.13.155.288zm30.074 1.126a4.55 4.55 0 011.099 2.245l.078.415h-2.402v-3.75l.328.233c.179.128.583.514.897.857zm-22.382 1.774c0 .882-.021 1.582-.047 1.556-.096-.096-.745-1.813-.745-1.97 0-.199.588-1.19.706-1.19.047 0 .086.722.086 1.604zm-77.863 1.85c.072.067-.307.685-.698 1.14-.22.254-.684.658-1.033.898l-.633.437-1.128-.555-1.127-.554v-.694c0-.38.032-.724.07-.762.067-.068 4.474.02 4.55.09zm63.493-.096c0 .194-.39 1.283-.46 1.283-.043 0-.267-.231-.498-.513-.549-.67-.48-.845.333-.845.344 0 .625.033.625.075zm37.963.042c.089.144-.05 1.722-.17 1.914-.096.156-.318.063-1.558-.652-.695-.4-.708-.417-.708-.894v-.485h1.182c.693 0 1.211.048 1.254.117zm-58.886.34c-.864.179-1.59.449-3.572 1.328-1.058.469-2.687 1.17-3.62 1.557-1.25.52-1.735.776-1.839.973-.11.207-.135 1.823-.113 7.14.031 7.652-.01 7.275.792 7.253.372-.011 4.136-1.57 6.33-2.623 3.39-1.625 5.536-4.112 6.336-7.337.338-1.366.363-4.104.047-5.335-.351-1.374-1.278-2.498-2.332-2.828-.602-.189-1.471-.243-2.029-.128zm29.466.675c.316.948.616 1.184 1.304 1.03.275-.062.517-.095.539-.074.021.022-.096.306-.261.632-.352.694-1.171 1.607-1.801 2.006-.41.26-.515.276-1.316.21-.94-.079-2.798-.444-3.3-.649l-.309-.126.366-.245c.318-.214.407-.395.689-1.387l.323-1.142 1.374-.42c.755-.23 1.5-.462 1.656-.514.156-.052.33-.083.39-.07.057.015.213.352.346.749zm-27.311.353c.267.148.652.487.855.755.567.743.735 1.442.796 3.305.07 2.124-.17 3.4-.922 4.91-1.085 2.18-2.647 3.673-5.098 4.874-1.093.535-5.98 2.665-6.116 2.665-.028 0-.05-2.998-.05-6.663v-6.663l1.16-.479c.637-.263 2.228-.951 3.535-1.528 2.107-.931 2.95-1.26 3.733-1.46.518-.13 1.627.019 2.107.284zm-49.99.675c1.011.34 2.5 1.134 4.02 2.144 2.212 1.47 3.461 2.708 4.368 4.33.391.7 1.015 2.223.94 2.298-.057.057-2.675-.488-3.174-.662-.374-.13-.467-.237-.698-.806-.344-.848-.784-1.476-1.39-1.984-1.197-1.006-2.357-1.31-2.904-.763-.39.39-.558 1.365-.48 2.79.103 1.87.56 3.075 1.575 4.148.632.669 1.731 1.284 2.294 1.284.452 0 .892-.39 1.14-1.012.102-.253.199-.46.217-.46.018 0 .663.474 1.433 1.054.77.58 1.565 1.15 1.766 1.27.2.118.364.253.364.3 0 .299-.518 1.374-.85 1.76-.988 1.156-2.53 1.244-4.473.254-1.656-.844-3.585-2.532-4.727-4.138-1.288-1.811-2.46-4.622-2.739-6.575-.201-1.405-.102-3.587.192-4.234.249-.547.622-.967 1-1.125.412-.173 1.411-.113 2.125.127zm67.775.192c.169.187.165.258-.043.928-.124.4-.25.75-.279.779-.029.029-.052-.389-.052-.928 0-.54.043-.981.095-.981.053 0 .178.09.279.202zm-22.89 3.01c-.342.142-.788.345-.99.45l-.367.192v3.562c0 2.975.025 3.562.158 3.562.262 0 2.13-.983 2.58-1.357.663-.552 1.086-1.549 1.222-2.878.186-1.82-.098-3.376-.673-3.684-.363-.194-1.27-.123-1.93.153zm1.666.716c.169.257.2.553.193 1.839-.01 1.831-.225 2.559-.953 3.216-.384.347-1.227.863-1.41.863-.034 0-.061-1.246-.061-2.769 0-3.148-.11-2.817 1.07-3.242.77-.278.927-.265 1.162.093zm59.988 1.08c.973.522 1.028.609 1.028 1.627v.495h-4.074l.004-.764.003-.764.93-.534c.512-.294.994-.536 1.071-.538.078-.002.545.213 1.038.478zm-103.897.277c.58.284 1.851 1.478 1.851 1.738 0 .062-.65.107-1.54.107h-1.539l.04-.888c.039-.839.192-1.263.458-1.263.058 0 .387.138.73.306zm28.44 5.061v5.028l.82-.225c.451-.124 1.88-.579 3.174-1.01 1.294-.432 2.376-.785 2.404-.785.028 0 .05.733.05 1.63v1.629l-1.272.45c-2.616.926-5.847 1.84-7.892 2.233-.529.102-1.05.21-1.16.241-.187.054-.197-.315-.197-6.626v-6.682l.254-.05c.14-.029 1.018-.227 1.952-.441a175.4 175.4 0 011.782-.405c.047-.008.085 2.248.085 5.013zm-11.491-3.61c2.913.602 4.558 2.145 5.05 4.734.158.838.126 2.77-.063 3.77-.438 2.315-2.093 4.251-4.15 4.853-.937.274-2.801.28-3.829.011-2.041-.532-3.658-1.815-4.616-3.662-1.366-2.633-1.358-6.29.019-8.096.702-.92 1.785-1.53 3.166-1.78.816-.147 3.358-.05 4.423.17zm-22.631 2.166c1.174 2.869 3.014 5.206 5.362 6.81 2.312 1.58 4.156 2.054 5.614 1.444.515-.215 1.372-1.014 1.703-1.588.387-.67.637-1.601.515-1.922-.055-.145-.575-.595-1.155-1a59.79 59.79 0 01-1.947-1.43c-1.26-.976-1.521-.948-2.062.219-.297.64-.476.692-1.167.34-.658-.337-1.48-1.226-1.837-1.988-.316-.676-.573-1.69-.457-1.805.033-.033.803-.059 1.71-.058l1.65.003.17.365c.162.35.235.382 1.636.735 1.79.45 2.858.566 3.155.342.23-.174.276-.52.143-1.08l-.087-.367h.688c.378 0 .688.019.688.042 0 .024-.133.28-.294.568-1.1 1.97-.998 5.651.225 8.08 1.073 2.132 2.569 3.408 4.825 4.116.725.228 1.079.266 2.506.266h1.661l.247 1.075c.136.591.47 1.966.744 3.055.468 1.865.485 1.99.298 2.128-.11.081-.796.499-1.525.929-5.713 3.37-11.195 7.861-15.86 12.995-.3.332-.585.561-.631.509a63.575 63.575 0 01-.927-1.226c-4.797-6.433-8.552-14.311-10.439-21.899-.608-2.444-.8-3.296-1.021-4.527-.308-1.713-.74-4.949-.74-5.54v-.575l3.115.03 3.116.03.378.924zm95.785 1.963c0 1.618-.021 2.942-.047 2.942-.043 0-2.2-2.888-2.76-3.695-.201-.29-.248-.518-.248-1.198 0-.463.034-.875.075-.916.042-.042.729-.076 1.528-.076h1.452v2.942zm6.675 2.044v4.987l.255-.078c1.164-.362 4.978-2.446 6.421-3.51 1.736-1.28 3.148-3.034 4.205-5.226l.559-1.16h7.003l-.004.65c-.002.359-.049.983-.104 1.387-.791 5.79-1.631 9.347-3.386 14.343-1.046 2.977-3.4 7.948-5.111 10.793-1.427 2.372-4.288 6.496-4.508 6.496-.038 0-.609-.586-1.269-1.302-3.409-3.696-7.583-7.256-11.811-10.071l-1.867-1.243c-.204-.136-3.125-1.819-3.238-1.865-.007-.003.16-.693.372-1.533 1.021-4.056 1.728-7.599 2.039-10.214.072-.602.136-.652.365-.283.087.14.873 1.235 1.745 2.433 1.351 1.856 1.63 2.179 1.877 2.178.277-.001 2.125-.394 3.148-.67l.481-.13v-5.409c0-2.975.034-5.443.075-5.485.042-.041.678-.075 1.414-.075h1.339v4.987zm7.986-4.41c-.097.734-.344 1.366-.817 2.09-.455.697-1.165 1.279-2.671 2.188l-.425.256V80.468h3.99l-.077.577zm-90.868 1.326c-.544.256-.994.76-1.202 1.348-.237.67-.203 3.332.05 4.061.457 1.306 1.537 2.027 2.924 1.948.645-.036.834-.097 1.197-.385.61-.484.928-1.194 1.081-2.412.216-1.708-.074-3.11-.805-3.899-.727-.784-2.3-1.104-3.245-.66zm1.965.685c.15.095.206.436.534 3.24.095.81.202 1.658.238 1.886.06.382.036.43-.302.605-.45.233-1.342.24-1.773.016-.962-.503-1.303-1.319-1.307-3.129-.004-2.107.396-2.717 1.781-2.714.374 0 .746.044.83.096zm1.356 2.109l-.005.34-.087-.34a3.206 3.206 0 01-.091-.566l-.006-.227.097.227c.054.124.095.379.092.566zm68.189.6l.284.43-.232 1.805c-.128.992-.277 1.907-.332 2.031-.061.14-.102-.716-.107-2.235-.004-1.354.017-2.462.047-2.462.031 0 .183.194.34.43zm-6.202 5.858c-.23.482-.173.615.263.615h.326l-.173-.51c-.096-.28-.185-.509-.199-.509-.014 0-.111.182-.217.404zM62.5 104.687c.396.467 1.868 2.02 3.272 3.452 1.405 1.431 2.634 2.781 2.733 2.999.098.218.213.727.254 1.132.041.404.197 1.601.347 2.659.428 3.027.443 3.467.407 12.264l-.01 2.417-.533-.72c-.597-.806-3.917-5.77-4.612-6.895a185.939 185.939 0 01-2.182-3.671c-1.275-2.212-3.588-6.725-4.495-8.771-1.533-3.458-1.689-3.847-1.578-3.943.16-.141 4.341-1.488 4.622-1.49.369-.001.97-.25.9-.373-.118-.21.08.002.875.94zm30.74.566c.417.14.774.268.793.284.101.088-3.15 7.298-3.292 7.298-.067 0 .196-1.464.469-2.602.126-.53.31-1.421.41-1.981.234-1.331.785-3.59.828-3.4.02.081.376.262.793.401zm10.164 3.906c-.091.091-.228.357-.304.591-.244.752-2.026 4.774-3.097 6.99-3.4 7.039-7.506 13.723-12.877 20.966-.432.582-.758 1.127-.726 1.211.05.129.164.129.717.001.362-.085 1.168-.263 1.79-.397 9.115-1.96 17.476-5.792 24.975-11.448 2.413-1.819 5.404-4.404 5.404-4.669 0-.222-2.481-2.972-4.143-4.592-1.763-1.718-3.377-3.125-5.135-4.476-2.013-1.547-2.805-2.084-6.019-4.084-.368-.229-.438-.24-.585-.093zm-58.702 1.012a58.788 58.788 0 00-12.398 10.526c-.775.869-1.434 1.645-1.464 1.724-.03.079.225.4.568.713 7.735 7.071 17.374 12.297 27.233 14.765 2.742.686 4.882 1.108 5.003.987.054-.054-.248-.549-.68-1.115-5.992-7.839-11.47-17.158-15.066-25.631-1.166-2.747-1.263-2.953-1.42-2.995-.062-.018-.861.444-1.776 1.026zm60.694.975c3.494 2.219 6.236 4.437 9.43 7.626 1.375 1.372 2.697 2.743 2.94 3.047l.44.553-.563.513c-1.035.943-3.152 2.675-4.467 3.654-5.126 3.818-10.429 6.68-16.295 8.794-2.703.974-3.553 1.232-6.22 1.891-2.464.607-2.49.613-2.49.562 0-.021.545-.793 1.21-1.715a139.005 139.005 0 008.972-14.182c1.52-2.763 4.741-9.59 5.33-11.296.083-.241.184-.353.284-.315.084.032.728.423 1.429.868zm-59.08-.489c.486 1.322 2.348 5.382 3.672 8.007 3.108 6.166 6.325 11.42 10.708 17.485.607.84 1.068 1.541 1.023 1.556-.188.067-3.904-.856-5.596-1.388-1.643-.517-4.987-1.715-5.685-2.036a74.523 74.523 0 00-1.414-.624c-2.508-1.075-6.553-3.279-8.995-4.902-2.563-1.703-5.912-4.279-7.556-5.811l-.54-.504.297-.36c2.895-3.5 7.78-7.836 11.703-10.389 1.634-1.064 2.088-1.345 2.175-1.345.051 0 .145.14.208.311z" fill="#000"/></svg>
